<?xml version="1.0" encoding="UTF-8"?>
<!DOCTYPE svg PUBLIC "-//W3C//DTD SVG 1.1//EN" "http://www.w3.org/Graphics/SVG/1.1/DTD/svg11.dtd">
<!-- Creator: CorelDRAW 2019 (64-Bit Versión de evaluación) -->
<svg xmlns="http://www.w3.org/2000/svg" xml:space="preserve" width="71.7466mm" height="15.8751mm" version="1.1" style="shape-rendering:geometricPrecision; text-rendering:geometricPrecision; image-rendering:optimizeQuality; fill-rule:evenodd; clip-rule:evenodd"
viewBox="0 0 82305.88 18211.51"
 xmlns:xlink="http://www.w3.org/1999/xlink">
 <defs>
  <style type="text/css">
   <![CDATA[
    .fil0 {fill:white}
   ]]>
  </style>
 </defs>
 <g id="Capa_x0020_1">
  <metadata id="CorelCorpID_0Corel-Layer"/>
  <path class="fil0" d="M21631.58 9053.5c0,4127.19 1842.13,8062.34 6402.5,8062.34 7032.07,0 5691.02,-794.07 5691.02,-8773.71 0,-1169.32 -1869.78,-711.36 -4979.66,-711.36 -1011.81,0 -711.36,910.05 -711.36,3082.57l2134.09 0 0 3082.69c-2061.24,0 -4979.66,458.87 -4979.66,-4505.41 0,-4653.74 1685.2,-5216.78 4742.53,-5216.78 926.11,0 1761.83,181.83 2371.32,474.24 1815.17,-3783.27 154.18,-3794.05 -4268.29,-3794.05 -4669.35,0 -6402.5,4255.1 -6402.5,8299.46z"/>
  <path class="fil0" d="M48426.95 1939.76l0 14938.97c4549.35,0 3556.93,1253.63 3556.93,-6639.5l4268.29 0 0 6639.5 3319.81 0 0 -15650.45 -3319.81 0c0,7173.51 1100.48,5928.25 -4268.29,5928.25 0,-2202.12 190.09,-4094.38 -237.12,-5928.25 -1084.88,0 -3319.81,-431.68 -3319.81,711.48z"/>
  <path class="fil0" d="M72139.74 16878.73c2578.96,0 2367.42,190.89 2608.33,-711.36 878.85,465.06 1959.72,840.42 3016.04,948.48l1159.79 0c1086.83,-125.39 2046.44,-639.66 2593.88,-1766.88 1537.67,-3166.43 887.57,-9378.04 -2501.41,-9378.04 -2872.87,0 -1356.08,-38.55 -3556.82,474.13l0 -5216.78 -3319.81 0 0 15650.45zm4022.68 -7749.85l-75.94 4704.68c1057.92,518.75 2258.1,599.86 2716.51,73.19 1257.88,-1445.33 1069.17,-6912.3 -2640.57,-4777.87z"/>
  <path class="fil0" d="M60994.71 14033.16c0,2039.56 1387.97,2872.41 2912.45,3082.69l1741.76 0c636.11,-79.73 1206.02,-236.89 1602.49,-421.7 792.35,-369.39 992.99,-974.64 1094.29,184.58l2371.21 0 0 -10670.79 -3319.81 0c0,1400.24 187.56,6797.35 -237.01,7825.22 -3539.61,824.7 -2845.57,29.02 -2845.57,-7825.22l-3319.81 0 0 7825.22z"/>
  <path class="fil0" d="M41313.09 3836.73l0 2608.33c-1041.98,23.29 -738.55,160.49 -1659.85,237.24l0 2371.21 1659.85 0c0,5784.4 -705.97,8062.34 4505.53,8062.34 1690.71,0 1422.73,-930.47 1422.73,-2134.2 0,-973.03 -1360.21,-712.97 -2371.32,-948.48l0 -4979.66c2710.2,0 2371.32,334.29 2371.32,-2134.09 0,-945.5 -671.79,-711.48 -2371.32,-711.48 0,-1894.67 130.89,-1503.26 -237.12,-3082.57 -1084.88,0 -3319.81,-431.68 -3319.81,711.36z"/>
  <path class="fil0" d="M35147.83 6919.41l0 9247.95c0,990.13 822.87,711.36 2845.57,711.36 546.4,0 711.36,-165.08 711.36,-711.36l0 -9959.43c-2450.02,0 -3556.93,-342.2 -3556.93,711.48z"/>
  <path class="fil0" d="M35147.83 3125.36c0,999.65 -102.33,2371.21 2134.2,2371.21 1554.19,0 2985.18,-3793.94 -711.36,-3793.94 -571.06,0 -1422.84,851.78 -1422.84,1422.73z"/>
  <path class="fil0" d="M18211.51 9105.7c0,-5028.98 -4076.71,-9105.7 -9105.7,-9105.7 -5028.98,0 -9105.81,4076.71 -9105.81,9105.7 0,5028.98 4076.83,9105.81 9105.81,9105.81 5028.98,0 9105.7,-4076.83 9105.7,-9105.81zm-1575.42 0c0,-4159.43 -3371.2,-7531.32 -7530.28,-7531.32 -4159.2,0 -7530.4,3371.89 -7530.4,7531.32 0,4159.31 3371.2,7531.43 7530.4,7531.43 4159.08,0 7530.28,-3372.12 7530.28,-7531.43zm-11274.2 4028.53l0 0zm6294.55 3061.58c-795.45,286.68 -1653.88,443.61 -2550.63,443.61 -577.72,0 -1139.49,-65.04 -1680.96,-188.14 0,-138.92 -2.18,-268.78 -2.18,-441.32 -2.29,-201.44 -4.47,-452.45 -6.65,-741.19 -2161.97,391.87 -2665.58,-1126.53 -2687.83,-1191.57 -343.69,-868.87 -817.94,-1090.62 -817.94,-1092.91l-18.01 -9.06c-1089.93,-745.66 128.14,-729.83 130.43,-729.83l8.95 0c851.78,60.46 1305.83,846.39 1330.26,888.83 258.46,443.61 577.72,663.18 894.34,752.66 458.64,132.15 923.71,-2.18 1195.47,-114.14 38.2,-224.04 101.41,-418.72 177.58,-582.42 51.97,-109.44 112.42,-208.1 177.7,-293.22 -824.93,-116.44 -1651.93,-356.2 -2299.05,-900.19 -716.87,-604.45 -1202.24,-1574.38 -1202.24,-3150.83l0 0c0,-441.32 76.4,-842.26 215.67,-1204.99 137.09,-360.44 337.15,-682.8 586.55,-967.3 -47.38,-134.56 -114.72,-371.8 -134.91,-683.26 -24.89,-382.47 15.6,-879.88 242.74,-1453.24l4.36 -11.24c0,0 99,-82.71 235.97,-91.77 92.12,-4.47 229.32,0 415.97,38.2 364,73.88 919,275.55 1687.38,788.34 303.54,-80.65 615.69,-143.51 935.06,-185.96 343.69,-47.15 694.27,-69.4 1042.67,-71.7l0 0c348.4,2.29 698.86,24.66 1042.78,71.7 316.85,42.67 631.4,105.31 934.83,185.96 1543.75,-1030.28 2254.2,-803.94 2256.26,-803.94l62.75 17.78 24.78 60.46c227.03,573.36 269.59,1070.43 242.74,1451.06 -20.3,313.64 -87.64,548.92 -135.02,682.8 249.85,284.5 447.28,607.2 586.67,965.46 139.15,365.15 215.67,766.08 215.67,1207.17 0,1580.92 -487.66,2550.86 -1204.53,3150.83 -647.24,542.04 -1474.12,777.1 -2301.23,893.53 96.59,127.68 184.12,282.32 251.92,468.16 92,248.59 148.33,553.05 148.33,913.72 0,640.35 -4.59,1307.78 -9.06,1748.98 0,62.64 0,118.62 0,172.31l0 0 2.41 6.65zm-6672.08 -2781.44c56.1,6.54 98.77,51.62 94.41,102.9 -4.47,51.62 -56.1,87.41 -112.42,82.71 -56.1,-6.54 -98.77,-51.28 -94.3,-102.79 4.36,-51.62 56.1,-87.3 112.31,-82.83l0 0zm215.78 553.17c4.47,-51.74 56.21,-87.19 112.42,-82.83 56.1,6.65 98.89,51.62 94.3,103.02 -4.59,51.62 -56.1,87.19 -112.31,82.71 -56.21,-6.65 -99,-51.51 -94.41,-102.9zm-743.83 -1274.17c55.98,6.77 98.77,51.51 94.3,102.79 -4.59,51.74 -56.1,87.41 -112.42,82.83 -56.1,-6.65 -98.89,-51.51 -94.3,-103.02 4.47,-51.39 56.1,-87.3 112.42,-82.6zm274.06 306.75c56.21,6.65 99.12,51.62 94.41,102.9 -4.47,51.62 -56.21,87.19 -112.31,82.83 -56.1,-6.65 -98.89,-51.62 -94.41,-102.9 4.36,-51.74 56.21,-87.3 112.31,-82.83zm1022.59 1209.35c55.98,6.77 99,51.51 94.3,103.02 -4.47,51.62 -56.1,87.19 -112.42,82.83 -55.98,-6.77 -98.77,-51.74 -94.41,-103.13 4.59,-51.51 56.1,-87.19 112.54,-82.71zm633.81 172.42c55.98,6.65 98.77,51.39 94.18,102.9 -4.47,51.74 -55.98,87.3 -112.31,82.94 -56.1,-6.77 -98.77,-51.62 -94.3,-103.13 4.36,-51.51 55.98,-87.41 112.42,-82.71l0 0zm586.55 -46.92c55.98,6.65 98.66,51.62 94.18,102.9 -4.59,51.62 -55.98,87.3 -112.31,82.83 -56.1,-6.77 -98.89,-51.62 -94.41,-103.02 4.47,-51.62 55.98,-87.19 112.54,-82.71l0 0z"/>
 </g>
</svg>
