<?xml version="1.0" encoding="UTF-8"?>
<!DOCTYPE svg PUBLIC "-//W3C//DTD SVG 1.1//EN" "http://www.w3.org/Graphics/SVG/1.1/DTD/svg11.dtd">
<!-- Creator: CorelDRAW 2019 (64-Bit Versión de evaluación) -->
<svg xmlns="http://www.w3.org/2000/svg" xml:space="preserve" width="12.1387mm" height="12.1821mm" version="1.1" style="shape-rendering:geometricPrecision; text-rendering:geometricPrecision; image-rendering:optimizeQuality; fill-rule:evenodd; clip-rule:evenodd"
viewBox="0 0 81.04 81.33"
 xmlns:xlink="http://www.w3.org/1999/xlink">
 <defs>
  <style type="text/css">
   <![CDATA[
    .fil1 {fill:#424242}
    .fil0 {fill:#A8E2F0}
    .fil2 {fill:#FFFFFE}
   ]]>
  </style>
 </defs>
 <g id="Capa_x0020_1">
  <metadata id="CorelCorpID_0Corel-Layer"/>
  <ellipse class="fil0" cx="40.52" cy="40.66" rx="40.52" ry="40.66"/>
  <ellipse class="fil1" cx="40.52" cy="40.66" rx="33.51" ry="33.63"/>
  <path class="fil2" d="M23.86 58.65l0 0zm28.01 13.67c-3.54,1.28 -7.36,1.98 -11.35,1.98 -2.57,0 -5.07,-0.29 -7.48,-0.84 -0,-0.62 -0.01,-1.2 -0.01,-1.97 -0.01,-0.9 -0.02,-2.02 -0.03,-3.31 -9.62,1.75 -11.86,-5.03 -11.96,-5.32 -1.53,-3.88 -3.64,-4.87 -3.64,-4.88l-0.08 -0.04c-4.85,-3.33 0.57,-3.26 0.58,-3.26l0.04 0c3.79,0.27 5.81,3.78 5.92,3.97 1.15,1.98 2.57,2.96 3.98,3.36 2.04,0.59 4.11,-0.01 5.32,-0.51 0.17,-1 0.45,-1.87 0.79,-2.6 0.23,-0.49 0.5,-0.93 0.79,-1.31 -3.67,-0.52 -7.35,-1.59 -10.23,-4.02 -3.19,-2.7 -5.35,-7.03 -5.35,-14.07l0 0c0,-1.97 0.34,-3.76 0.96,-5.38 0.61,-1.61 1.5,-3.05 2.61,-4.32 -0.21,-0.6 -0.51,-1.66 -0.6,-3.05 -0.11,-1.71 0.07,-3.93 1.08,-6.49l0.02 -0.05c0,-0 0.44,-0.37 1.05,-0.41 0.41,-0.02 1.02,0 1.85,0.17 1.62,0.33 4.09,1.23 7.51,3.52 1.35,-0.36 2.74,-0.64 4.16,-0.83 1.53,-0.21 3.09,-0.31 4.64,-0.32l0 0c1.55,0.01 3.11,0.11 4.64,0.32 1.41,0.19 2.81,0.47 4.16,0.83 6.87,-4.6 10.03,-3.59 10.04,-3.59l0.28 0.08 0.11 0.27c1.01,2.56 1.2,4.78 1.08,6.48 -0.09,1.4 -0.39,2.45 -0.6,3.05 1.11,1.27 1.99,2.71 2.61,4.31 0.62,1.63 0.96,3.42 0.96,5.39 0,7.06 -2.17,11.39 -5.36,14.07 -2.88,2.42 -6.56,3.47 -10.24,3.99 0.43,0.57 0.82,1.26 1.12,2.09 0.41,1.11 0.66,2.47 0.66,4.08 0,2.86 -0.02,5.84 -0.04,7.81 -0,0.28 -0,0.53 -0,0.77l0 0zm-29.69 -12.42c0.25,0.03 0.44,0.23 0.42,0.46 -0.02,0.23 -0.25,0.39 -0.5,0.37 -0.25,-0.03 -0.44,-0.23 -0.42,-0.46 0.02,-0.23 0.25,-0.39 0.5,-0.37l0 0zm0.96 2.47c0.02,-0.23 0.25,-0.39 0.5,-0.37 0.25,0.03 0.44,0.23 0.42,0.46 -0.02,0.23 -0.25,0.39 -0.5,0.37 -0.25,-0.03 -0.44,-0.23 -0.42,-0.46zm-3.31 -5.69c0.25,0.03 0.44,0.23 0.42,0.46 -0.02,0.23 -0.25,0.39 -0.5,0.37 -0.25,-0.03 -0.44,-0.23 -0.42,-0.46 0.02,-0.23 0.25,-0.39 0.5,-0.37zm1.22 1.37c0.25,0.03 0.44,0.23 0.42,0.46 -0.02,0.23 -0.25,0.39 -0.5,0.37 -0.25,-0.03 -0.44,-0.23 -0.42,-0.46 0.02,-0.23 0.25,-0.39 0.5,-0.37zm4.55 5.4c0.25,0.03 0.44,0.23 0.42,0.46 -0.02,0.23 -0.25,0.39 -0.5,0.37 -0.25,-0.03 -0.44,-0.23 -0.42,-0.46 0.02,-0.23 0.25,-0.39 0.5,-0.37zm2.82 0.77c0.25,0.03 0.44,0.23 0.42,0.46 -0.02,0.23 -0.25,0.39 -0.5,0.37 -0.25,-0.03 -0.44,-0.23 -0.42,-0.46 0.02,-0.23 0.25,-0.39 0.5,-0.37l0 0zm2.61 -0.21c0.25,0.03 0.44,0.23 0.42,0.46 -0.02,0.23 -0.25,0.39 -0.5,0.37 -0.25,-0.03 -0.44,-0.23 -0.42,-0.46 0.02,-0.23 0.25,-0.39 0.5,-0.37l0 0z"/>
 </g>
</svg>
