<?xml version="1.0" encoding="UTF-8"?>
<!DOCTYPE svg PUBLIC "-//W3C//DTD SVG 1.1//EN" "http://www.w3.org/Graphics/SVG/1.1/DTD/svg11.dtd">
<!-- Creator: CorelDRAW 2019 (64-Bit Versión de evaluación) -->
<svg xmlns="http://www.w3.org/2000/svg" xml:space="preserve" width="20.6866mm" height="5.2889mm" version="1.1" style="shape-rendering:geometricPrecision; text-rendering:geometricPrecision; image-rendering:optimizeQuality; fill-rule:evenodd; clip-rule:evenodd"
viewBox="0 0 795.03 203.26"
 xmlns:xlink="http://www.w3.org/1999/xlink">
 <defs>
  <style type="text/css">
   <![CDATA[
    .fil0 {fill:white}
   ]]>
  </style>
 </defs>
 <g id="Capa_x0020_1">
  <metadata id="CorelCorpID_0Corel-Layer"/>
  <path class="fil0" d="M789.13 199.82c8.84,-15.91 4.52,-69.56 4.52,-94.14 0,-124.54 20.26,-104.13 -94.7,-104.13 -126.25,0 -106.58,-21.51 -106.58,95.63 0,15.76 -2.34,89.9 2.24,97.99 6.83,12.06 74.83,7.06 93.72,7.06 23.91,0 82.24,2.62 100.8,-2.41zm-88.18 -111.11c-3.43,-7.27 0.89,-5.96 -4.12,-12.26l-25.17 0 -0.7 95.97 29.74 -0.2c-0,-21.69 -9.05,-86.63 26.35,-69.4 4.53,3.19 5.32,4.24 6.58,12.47l0.67 57.13 29.46 0c0,-20.77 2.7,-68.34 -5.53,-83.48 -11.24,-20.66 -46.43,-19.1 -57.28,-0.23zm-78.52 83.49l29.64 0.18 -0.06 -95.85 -28.94 -0.03 -0.64 95.71zm8.26 -141.72c-21.25,9.51 -7.4,40.04 13.55,31.29 18.57,-7.76 8.15,-41.01 -13.55,-31.29z"/>
  <path class="fil0" d="M532.93 84.94c-9.09,-4.98 -24.53,-20.34 -51.85,-5.93 -12.69,6.69 -23.26,23.33 -23.3,45.8 -0.07,47.25 54.58,66.18 75.47,36.06 3.07,5.26 2.02,3.31 2.05,11.36l27.51 0.04 -0 -141.26 -29.88 -0.17 0 54.1zm-28.5 16.22c-12.74,4.01 -20.81,13.05 -15.47,31.53 3.41,11.78 16.51,19.48 32.28,14.18 24.33,-8.17 15.88,-56 -16.81,-45.71z"/>
  <path class="fil0" d="M256.61 172.48l29.88 -0.25 0.05 -45.8c14.81,15.5 24.27,46.05 38.39,46.05l29.58 -0.21c-5.47,-15.25 -29.22,-35.97 -35.88,-51.71 11.13,-15.13 26.16,-28.9 37.39,-43.85 -47.33,-2.84 -35.86,1.68 -51.17,17.37 -6.72,6.89 -9.63,12.38 -17.99,19.94l-0.41 -82.98 -29.93 -0.2 0.07 141.64z"/>
  <path class="fil0" d="M443.56 156.68c-0.25,-0.41 -0.73,-1.48 -0.87,-1.15 -0.13,0.33 -0.71,-0.93 -0.9,-1.13 -0.2,-0.21 -0.71,-0.84 -0.96,-1.08l-5.81 -4.7c-3.22,-2.32 -6.63,-4.73 -10.2,-7.15 -8.38,4.4 -11.1,11.92 -25.05,10.43 -11.99,-1.28 -16.67,-7.48 -19.27,-18.29l69.05 -0.27c-0.22,-87.04 -88.4,-65.79 -95.76,-28.55 -11.25,29.29 4.88,54.93 23.01,63.83 10.93,5.37 24.84,7.88 37.68,5.29 16.97,-3.42 19.69,-8.37 29.09,-17.23zm-62.44 -43.42l37.99 -0.14c-0.77,-24.74 -37.67,-23.12 -37.99,0.14z"/>
  <path class="fil0" d="M177.87 88.09l-1.25 -11.71 -27.54 0.01 -0.56 96.03 29.92 0c0,-24.87 -9.19,-84.62 26.13,-69.79 12.32,10.95 7.27,51.98 7.27,69.79l29.82 -0.2c-0.01,-48.72 9.7,-97.08 -33.7,-98.12 -16.86,-0.4 -22.82,6.51 -30.09,13.99z"/>
  <polygon class="fil0" points="-0,172.17 8.3,172.54 80.55,172.48 88.67,172.03 88.66,144.33 80.56,143.85 31.15,143.93 31.15,31.44 -0,30.85 "/>
  <path class="fil0" d="M102.37 172.21l28.19 0.25c3.59,-10.42 2.44,-81.65 1.06,-96.13l-29.05 0.13 -0.21 95.75z"/>
  <path class="fil0" d="M110.2 30.63c-21.14,10.58 -6.34,38.79 13.74,31.47 20.29,-7.39 8.21,-42.46 -13.74,-31.47z"/>
 </g>
</svg>
