<?xml version="1.0" encoding="UTF-8"?>
<!DOCTYPE svg PUBLIC "-//W3C//DTD SVG 1.1//EN" "http://www.w3.org/Graphics/SVG/1.1/DTD/svg11.dtd">
<!-- Creator: CorelDRAW 2019 (64-Bit Versión de evaluación) -->
<svg xmlns="http://www.w3.org/2000/svg" xml:space="preserve" width="13.3351mm" height="2.4527mm" version="1.1" style="shape-rendering:geometricPrecision; text-rendering:geometricPrecision; image-rendering:optimizeQuality; fill-rule:evenodd; clip-rule:evenodd"
viewBox="0 0 347.76 63.96"
 xmlns:xlink="http://www.w3.org/1999/xlink">
 <defs>
  <style type="text/css">
   <![CDATA[
    .fil0 {fill:white}
   ]]>
  </style>
 </defs>
 <g id="Capa_x0020_1">
  <metadata id="CorelCorpID_0Corel-Layer"/>
  <g id="_2926831447536">
   <path class="fil0" d="M-0 31.82c0,2.68 0.28,5.12 0.85,7.39 0.53,2.1 1.15,4.22 1.99,5.93 2.52,5.12 2.64,4.71 5.57,8.38 2.5,3.13 6.85,5.85 10.31,7.58 8.58,4.31 20.7,3.65 29,-1.28 2.39,-1.42 2.71,-1.77 4.65,-3.27 1.12,-0.87 3.17,-2.9 4.05,-4.03 3.43,-4.42 5.19,-7.48 6.62,-13.19 2.27,-9.05 0.21,-17.93 -4.84,-25.56l-4.65 -5.33c-1.02,-0.79 -1.64,-1.58 -3.32,-2.69 -2.45,-1.63 -2.4,-1.58 -5.02,-2.9 -7.65,-3.84 -18.91,-3.74 -26.38,-0.05 -1.76,0.87 -3.51,1.75 -5.04,2.88 -2.18,1.61 -4.62,3.61 -6.28,5.75 -4.68,6.02 -7.5,12.32 -7.5,20.39zm45.73 -9.67c0.3,-0.15 1.55,-0.34 1.93,-0.44 0.74,-0.19 1.29,-0.36 1.86,-0.67 -0.23,0.87 -2.15,2.65 -2.85,3.17 -1.26,0.92 -0.23,1.64 -0.9,5.12 -0.39,1.99 -0.73,2.94 -1.4,4.63 -1.55,3.92 -4.73,7.54 -8.36,9.7 -5.94,3.51 -13.09,3.62 -19.44,0.9 -0.44,-0.19 -0.66,-0.33 -1.03,-0.55l-0.98 -0.61c3.91,0 6.36,-0.45 9.44,-2.44 0.47,-0.31 0.7,-0.31 0.85,-0.89 -1.76,0 -3.25,-0.64 -4.23,-1.47 -0.94,-0.8 -2.11,-2.11 -2.42,-3.44 0.81,0.19 1.42,0.24 2.3,0.08 0.77,-0.14 0.53,0.06 0.87,-0.4 -1.68,-0.14 -2.97,-1.28 -4,-2.33 -1.04,-1.07 -1.7,-2.57 -1.7,-4.64 0.66,0.32 2.19,0.79 3.17,0.79 -0.56,-0.83 -0.95,-0.45 -2.15,-2.44 -0.99,-1.64 -1.29,-3.77 -0.75,-5.7 0.17,-0.63 0.41,-0.99 0.53,-1.53 0.55,0.15 1.29,1.42 2.44,2.31 0.53,0.41 0.77,0.66 1.31,1.06 3.11,2.33 6.49,3.69 10.65,4.1 2.26,0.22 -0.6,-0.91 1.58,-5.11 2.13,-4.09 7.54,-4.88 10.7,-2.47 1.11,0.85 0.41,1.36 3.41,0.28 0.79,-0.29 1.43,-0.8 2.19,-0.97 -1.31,2.48 -0.95,1.94 -2.61,3.41 -0.37,0.33 -0.26,0.03 -0.4,0.55z"/>
   <path class="fil0" d="M115.05 36.9c-0.01,4.08 0.23,9.78 2.32,13.4 4.62,8.02 14.75,12.2 23.47,8.7 2.34,-0.94 3.91,-2.54 5.72,-3.19 3.33,1.88 4.73,3.66 9.83,4.21 7.95,0.86 14.78,-2.42 18.73,-8.99 1.85,-3.07 2.81,-6.73 2.62,-11.05l0.07 -5.49c0.03,-0.96 0.49,-7.55 -0.62,-8.24 -4.6,-8.71 -12.78,-1.51 -12.13,0.14 -0.36,4.83 0.36,16.81 -1.71,19.06 -0.99,1.08 -2.6,1.97 -4.78,1.84 -8.7,-0.52 -4.13,-14.21 -5.99,-21.12 -1.45,-2.56 -1.56,-2.45 -4.03,-3.82 -4.33,-0.98 -7.18,0.65 -8.03,3.56 -0.55,2.49 -0.41,4.36 -0.4,7.01l-0.04 5.36c-0.19,3.44 0.16,5.56 -2.09,7.55 -0.77,0.68 -1.7,1.33 -3.09,1.5 -8.24,1.02 -6.57,-9.54 -6.87,-14.82 -0.02,-2.77 0.35,-5.67 -1.05,-7.59 -1.23,-1.68 -2.64,-2.74 -5.61,-2.74 -2.17,0.07 -2.9,0.45 -4.09,1.58 -2.86,2.72 -2.21,9.44 -2.22,13.15z"/>
   <path class="fil0" d="M73.1 19.25l0 6.43 0 7.32 0.13 6.52c0.04,2.74 0.14,5.76 1.17,8.07 0.54,1.21 0.99,2.1 1.68,3.14 2.48,3.78 5.38,6.44 9.71,8.13 2.42,0.94 5.43,1.21 8.24,1.2 3.51,-0.08 7.12,0.12 10.63,0.01 3.78,-0.11 5.47,-0.04 7.47,-3.03 1.65,-2.46 1.08,-6.03 -0.43,-7.97 -1.91,-2.47 -7.82,-2.73 -10.95,-2.54l-8.81 -0.5c-3.1,0.35 -4.82,-3.02 -5.26,-6.29l0 -4.02 7.09 -0.01 6.68 0c2.53,-0.22 5.06,0.01 7.64,-0.54 3.02,-0.85 6.48,-6.46 1.22,-10.82 -2.15,-1.78 -6.24,-1.36 -8.97,-1.5l-3.92 -0.04 -9.73 -0.22 -0.27 -10.96c-0.61,-2.66 -2.98,-4.48 -5.78,-4.98 -3.47,-0.04 -5.54,1.26 -6.79,3.54 -1.31,2.4 -0.77,6.14 -0.76,9.05z"/>
   <path class="fil0" d="M269.36 43.07c0.88,8.67 8.84,16.42 17.58,16.85 3.98,0.63 10.78,0.19 15.11,0.19 4.28,0.01 7.2,-1.89 6.4,-6.61 -0.82,-2.82 -2.17,-3.98 -5.03,-4.28 -2.96,-0.31 -7.35,-0.32 -10.31,-0.25 -4,0.09 -9.53,-0.15 -9.82,-4.07 2.17,-0.4 18.11,-0.02 23.55,-0.47 5.34,-3.5 3.22,-10.01 0.09,-14.5 -5.17,-7.43 -12.8,-7.77 -20.82,-7.76 -12.2,1.65 -17.02,8.88 -16.75,20.89zm14.11 -7.26l12.78 0.03c-1,-4.95 -11.25,-5.21 -12.78,-0.03z"/>
   <path class="fil0" d="M235.17 12l-0.06 7.25 0 6.43 0 7.3 0 6.43c0.43,6.26 1.29,10.44 6.11,15.05 7.13,6.82 11.8,5.44 19.97,5.53 3.01,0.03 3.15,-0.04 4.81,-1.8 1.02,-1.08 1.69,-2.04 2.06,-3.79 0.2,-3.04 -0.88,-4.95 -2.63,-6.3 -2,-1.54 -4.4,-1.38 -7.2,-1.55 -8.43,-0.03 -9.48,-2.59 -9.4,-10.81l2.65 -0.01 7.05 0c3.84,-0.33 3.7,-0.25 6.28,-2 0.28,-0.37 0.2,-0.3 0.65,-0.81 0.83,-0.93 1.06,-2.32 1.07,-3.58 0.03,-4.71 -3.63,-6.28 -7.76,-6.51l-9.84 -0.12c-0.9,-6.46 1.71,-10.8 -3.05,-14.79 -1.76,-1.47 -4.74,-1.8 -7.07,-0.61 -2,1.02 -2.67,2.39 -3.65,4.69z"/>
   <path class="fil0" d="M200.23 18.95l-0 7.07c0.01,3.29 -0.27,6.56 -0.13,9.84 0.29,7.03 0.29,12.71 5.6,18.08 2.1,2.12 4.73,4.01 8.44,5.24 2.94,0.98 8.98,1.1 12.2,0.81 4.48,-0.4 6.76,-2.55 6.77,-7.32 -1.05,-4.51 -3.62,-6.12 -8.78,-6.14 -9.24,0.01 -10.41,-1.38 -10.37,-10.55l3.39 -0.27c2.85,-0 9.27,0.55 11.56,-1.25 3.25,-2.55 3.79,-6.74 0.81,-9.7 -1.8,-1.79 -2.77,-1.63 -5.78,-1.92l-9.91 -0.25 -0.34 -10.31c-0.65,-3.44 -3.38,-6.07 -7.7,-5.5 -2.6,0.34 -5.14,2.5 -5.48,4.75 -0.38,2.45 -0.27,4.94 -0.27,7.41z"/>
   <path class="fil0" d="M328.17 23.06l-3.05 1.22c-2.68,1.08 -5.12,3.05 -6.98,5.04 -1.37,1.46 -2.22,2.83 -3.08,4.79 -2.16,4.9 -1.65,7.22 -1.56,12.31l0 7.07c-0.03,3.02 1.23,4.8 3.11,5.92 2.02,1.2 5.51,0.84 7.23,-0.7 3.55,-3.18 2.11,-10.77 2.4,-16.38 0.61,-11.89 13.92,-2.71 19.73,-8.86 4.08,-4.31 0.65,-9.71 -4.94,-10.61l-7.28 -0.01 -5.58 0.21z"/>
   <path class="fil0" d="M183.15 25.22l-0.51 0.87c-1.16,3.36 -0.37,22 -0.39,27.03 0.04,3.14 1.13,4.5 2.93,5.88 2.88,2.21 10.22,1.52 10.47,-5.61 0.2,-5.8 0.95,-24.21 -0.41,-27.41 -1.76,-4.16 -9.57,-5.75 -12.09,-0.76z"/>
   <path class="fil0" d="M182.23 10.47c-0.15,2.38 0.41,3.86 1.12,5.52 1.32,1.3 2.48,2.65 5.42,2.76 6.19,0.23 9.23,-7.06 5.16,-11.38 -0.71,-0.75 -1.79,-1.28 -2.1,-1.64l-2.29 -0.4c-4.5,0.01 -5.91,1.49 -7.32,5.15z"/>
  </g>
 </g>
</svg>
